<svg width="188" height="189" viewBox="0 0 188 189" fill="none" xmlns="http://www.w3.org/2000/svg">
<g opacity="0.6">
<circle cx="59.6066" cy="70.863" r="109.542" fill="#D8D9FF"/>
<path d="M184.859 75.5417C184.859 135.364 136.364 183.859 76.5417 183.859C16.7197 183.859 -31.7756 135.364 -31.7756 75.5417C-31.7756 15.7197 16.7197 -32.7756 76.5417 -32.7756C136.364 -32.7756 184.859 15.7197 184.859 75.5417Z" stroke="#898AEB" stroke-width="2.44888"/>
<circle cx="83.4378" cy="118.6" r="11.7987" transform="rotate(-12.888 83.4378 118.6)" fill="white"/>
<path d="M44.0998 52.4452C44.5881 46.0465 47.0974 40.171 51.1831 35.8593C55.2689 31.5476 60.6675 29.078 66.4228 28.8878C72.1781 28.6976 77.9186 30.7992 82.6276 34.8203C87.3367 38.8414 90.7103 44.5226 92.151 50.8575C96.2417 68.7354 74.6133 83.0911 74.6133 83.0911" stroke="white" stroke-width="19.6645" stroke-linecap="round" stroke-linejoin="round"/>
</g>
</svg>
