<svg width="184" height="191" viewBox="0 0 184 191" fill="none" xmlns="http://www.w3.org/2000/svg">
<g opacity="0.6">
<path opacity="0.7" d="M-34.221 149.046L13.7165 -1.29886C19.713 -20.1056 44.3276 -24.4559 56.3798 -8.8391L152.728 116.005C163.972 130.576 155.727 151.899 137.61 155.101L-6.67506 180.601C-24.7922 183.803 -39.8159 166.593 -34.221 149.046Z" fill="#FDEFD6"/>
<path d="M42.4159 57.1593C40.7068 51.2888 44.3472 45.2008 50.3277 43.9279L54.4242 43.056C60.4047 41.7831 66.2032 45.8621 67.0265 51.9212L74.5378 107.204C75.1351 111.6 72.2413 115.714 67.9026 116.637C63.564 117.561 59.2493 114.981 58.0094 110.722L42.4159 57.1593Z" fill="white"/>
<ellipse rx="10.2106" ry="10.223" transform="matrix(0.978091 -0.208179 0.207645 0.978204 71.1959 133.311)" fill="white"/>
<path d="M31.8332 -0.0980339L30.7201 -0.453468L31.8332 -0.0980339ZM-18.6027 157.841L-17.4896 158.196L-18.6027 157.841ZM74.5741 -7.6405L75.4986 -8.35503L74.5741 -7.6405ZM175.943 123.51L175.019 124.224L175.943 123.51ZM8.99349 189.406L9.19654 190.556L8.99349 189.406ZM160.798 162.617L160.595 161.466L160.798 162.617ZM30.7201 -0.453468L-19.7157 157.486L-17.4896 158.196L32.9462 0.257401L30.7201 -0.453468ZM73.6497 -6.92596L175.019 124.224L176.868 122.795L75.4986 -8.35503L73.6497 -6.92596ZM9.19654 190.556L161.001 163.768L160.595 161.466L8.79044 188.255L9.19654 190.556ZM32.9462 0.257401C38.6675 -17.6586 62.1517 -21.8018 73.6497 -6.92596L75.4986 -8.35503C62.8482 -24.7219 37.0138 -20.1619 30.7201 -0.453468L32.9462 0.257401ZM175.019 124.224C185.746 138.103 177.881 158.416 160.595 161.466L161.001 163.768C180.015 160.412 188.671 138.066 176.868 122.795L175.019 124.224ZM-19.7157 157.486C-25.5883 175.876 -9.81838 193.912 9.19654 190.556L8.79044 188.255C-8.49486 191.306 -22.8271 174.911 -17.4896 158.196L-19.7157 157.486Z" fill="#F1CD8E"/>
</g>
</svg>
